<svg width="70" height="17" viewBox="0 0 70 17" fill="none" xmlns="http://www.w3.org/2000/svg">
<path d="M69.1912 0.0041925C64.4283 0.0188662 59.6629 0.0188662 54.9 0.0209625C54.5809 0.538736 54.5809 1.05441 54.9 1.57219C59.0031 1.57638 63.1086 1.57847 67.2117 1.58267C68.181 1.58267 68.1858 1.58686 68.1858 2.44003C68.193 6.07912 68.2002 9.7182 68.2074 13.3573C68.7929 13.6298 69.3784 13.6298 69.9662 13.3573C69.9734 9.11448 69.9686 4.87378 69.9998 0.630971C70.0046 0.0691762 69.7239 0 69.1912 0V0.0041925Z" fill="white"/>
<path d="M48.7265 8.939C48.657 8.7168 48.441 8.49669 48.8081 8.34367C50.0582 7.81541 50.2142 6.8721 50.219 5.78834C50.2262 4.6375 49.336 3.84512 48.0979 3.64178C46.6534 3.40491 45.1897 3.44683 43.7285 3.50133C43.3445 3.98347 43.6061 4.51801 43.5629 5.0274C43.762 5.24122 44.0428 5.19929 44.3043 5.19929C45.3121 5.19929 46.3223 5.19091 47.3301 5.18672C48.0859 5.21816 48.4002 5.67095 48.3618 6.22226C48.321 6.81969 47.8027 7.08592 47.1141 7.08801C45.984 7.08801 44.8538 7.10478 43.7237 7.11317C43.5269 7.20331 43.5389 7.36891 43.5389 7.52194C43.5365 8.95996 43.5365 10.398 43.5389 11.8381C43.5389 11.9932 43.5365 12.1567 43.7237 12.249C44.2659 12.249 44.8226 12.4041 45.3433 12.14C45.6072 11.9324 45.5041 11.6557 45.5089 11.4063C45.5281 10.5489 45.5257 9.69365 45.5328 8.83628C45.8808 8.83628 46.2287 8.83628 46.5766 8.83628C47.0757 9.86135 47.5748 10.8885 48.1651 11.8779C48.2802 12.0708 48.3834 12.2595 48.669 12.2636C49.2184 12.2699 49.7727 12.3223 50.375 12.2112C50.0822 11.6096 49.8303 11.0877 49.5712 10.5678C49.3 10.0207 48.9065 9.52385 48.7217 8.939H48.7265Z" fill="white"/>
<path d="M32.0308 7.05807C31.7405 6.88199 31.407 6.93439 31.0854 6.9323C30.1808 6.92391 29.2762 6.92391 28.3716 6.91972C28.326 6.85683 28.2853 6.78346 28.2541 6.70381C28.2541 6.27617 28.2517 5.84854 28.2493 5.4209C28.2805 5.34334 28.3165 5.27207 28.3572 5.20709C28.6452 5.20709 28.9355 5.22176 29.2211 5.19661C29.7945 5.1463 30.3992 5.35382 30.9391 5.0331C30.9391 5.03519 30.9391 5.03939 30.9391 5.04148C31.215 4.51742 31.2462 3.99546 30.9175 3.47559C29.3722 3.47978 27.827 3.48397 26.2841 3.48816C26.0106 3.65586 26.0897 3.91161 26.0897 4.1359C26.0849 6.62415 26.0849 9.1124 26.0897 11.6006C26.0897 11.827 26.0226 12.0807 26.2865 12.2505C26.8696 12.2547 27.455 12.2589 28.0381 12.2652C28.3308 12.0429 28.2373 11.7411 28.2397 11.4665C28.2541 10.5378 28.2517 9.60921 28.2565 8.68057C29.0579 8.67428 29.8593 8.68476 30.6583 8.65122C31.1166 8.63235 31.6037 8.78957 32.0308 8.51916C32.2876 8.04331 32.3332 7.57165 32.014 7.10209L32.0308 7.05598V7.05807Z" fill="white"/>
<path d="M38.0968 4.0408C38.0369 3.90664 37.9937 3.7075 37.7969 3.68444C37.5354 3.65509 37.4682 3.86262 37.389 4.03241C37.3434 4.12884 37.2906 4.22108 37.2498 4.3175C36.1941 6.71351 35.1431 9.11162 34.0801 11.5055C33.7394 12.2707 33.7274 12.2811 34.656 12.2728C35.8941 12.2602 35.671 12.4614 36.1389 11.3483C36.5588 10.3505 36.9331 9.33802 37.3458 8.33601C37.4298 8.13058 37.401 7.77631 37.7321 7.7826C38.0848 7.79099 38.0752 8.14525 38.1688 8.38003C38.5167 9.2353 38.8767 10.0864 39.2222 10.9416C39.6141 11.9073 40.4523 12.3301 41.7368 12.2099C41.0074 10.5853 40.2996 9.02148 39.6013 7.45349C39.095 6.31732 38.6055 5.17487 38.0968 4.0408Z" fill="white"/>
<path d="M60.9948 10.7019C60.8101 10.5258 60.5629 10.5488 60.3278 10.5488C58.7489 10.553 57.1701 10.5593 55.5912 10.5656C55.572 10.5656 55.5552 10.5824 55.5384 10.6159C55.5288 10.6348 55.5312 10.6537 55.5456 10.6704C55.3177 11.2008 55.3033 11.729 55.6152 12.2531C57.2229 12.2615 58.8305 12.2699 60.4381 12.2741C60.6397 12.2741 60.8629 12.3097 61.0116 12.1336C61.2492 11.6557 61.2876 11.1777 60.99 10.704H60.9924L60.9948 10.7019Z" fill="white"/>
<path d="M53.1318 10.8589C52.5776 10.8191 52.2032 10.9574 52.1816 11.5046C52.1529 11.9636 52.4432 12.2508 52.9495 12.2655C53.3934 12.2781 53.9237 11.9133 53.9692 11.5612C54.0196 11.1734 53.6765 10.8967 53.1318 10.8568V10.8589Z" fill="white"/>
<path d="M14.2653 15.2691C10.1742 15.2544 6.08307 15.2523 1.98958 15.2481C1.98718 14.6507 1.96079 14.0511 1.98718 13.4558C2.00638 13.0533 1.82882 12.6215 2.16954 12.2567C2.40949 12.263 2.64943 12.2756 2.88698 12.2777C3.93075 12.2819 3.92595 12.2798 4.26188 11.435C4.68898 10.3575 5.13288 9.28217 5.55279 8.2026C5.62237 8.02651 5.64397 7.79383 5.87432 7.77706C6.17905 7.754 6.20544 8.03909 6.27983 8.21727C6.76212 9.38908 7.25401 10.5567 7.68352 11.7432C7.82748 12.1435 8.03864 12.3154 8.50173 12.2798C8.93844 12.2442 9.38954 12.3553 9.80704 12.2043C9.82144 12.1582 9.84544 12.1268 9.83824 12.1079C8.6505 9.42471 7.46277 6.73942 6.26303 4.06041C6.19585 3.91158 6.15985 3.66003 5.88632 3.68519C5.64877 3.70615 5.58398 3.92416 5.512 4.08976C4.38905 6.65557 3.2709 9.22347 2.15034 11.7893C1.8792 11.5503 1.98958 11.2464 1.98718 10.9696C1.97758 8.74972 1.98718 6.5277 1.97518 4.30777C1.97518 4.03526 2.09516 3.72501 1.78802 3.50072C1.26014 3.49652 0.729859 3.49443 0.201977 3.49023C-0.0187744 3.63907 0.000421306 3.85498 0.000421306 4.06251C0.00761971 7.80012 0.0172176 11.5377 0.024416 15.2732C0.024416 15.6904 0.024416 16.1075 0.0220165 16.5268C0.0220165 16.6232 0.0172176 16.7197 0.0172176 16.8161C0.240368 17.0676 0.561897 16.988 0.847433 16.988C5.38003 16.9922 9.91262 16.9922 14.4452 16.988C14.7308 16.988 15.0523 17.0676 15.273 16.814C15.273 16.3549 15.273 15.8979 15.273 15.4388C14.9899 15.1496 14.606 15.267 14.2653 15.267V15.2691Z" fill="white"/>
<path d="M55.6078 8.94734C56.1957 8.95153 56.7836 8.95363 57.3714 8.95782C57.5874 8.80479 57.5706 8.58888 57.5706 8.37926C57.5706 6.93704 57.5706 5.49692 57.5706 4.0547C57.5706 3.84507 57.5778 3.63126 57.3594 3.48242C56.7764 3.48242 56.1933 3.48661 55.6102 3.48871C55.3943 3.6061 55.4159 3.79896 55.4159 3.97923C55.4135 5.46966 55.4135 6.96219 55.4159 8.45263C55.4159 8.6329 55.3991 8.82366 55.6078 8.94734Z" fill="white"/>
<path d="M23.9139 5.08823C23.3116 5.06098 22.6901 4.90376 22.1095 5.18885C21.7471 5.89319 21.4448 6.6143 21.1593 7.3438C21.1113 7.46747 21.0681 7.68339 20.8353 7.66243C20.641 7.64566 20.5786 7.48844 20.5138 7.33332C20.0459 6.24327 19.4916 5.17837 19.1125 4.06736C18.8558 3.3169 18.2703 3.51186 17.7112 3.46364C17.121 3.41333 16.8066 3.57894 16.6123 4.11348C16.2188 5.19514 15.7221 6.24956 15.247 7.30606C15.1822 7.45071 15.139 7.70854 14.8583 7.66033C14.6831 7.62889 14.6279 7.45699 14.5631 7.29978C14.2728 6.59753 13.9561 5.90158 13.6465 5.20353C13.0059 4.9394 12.3628 4.9394 11.7222 5.20353C12.67 7.35847 13.6201 9.51132 14.5583 11.6684C14.6351 11.8423 14.6591 12.0583 14.9111 12.0583C15.1678 12.0583 15.1966 11.813 15.2662 11.6579C16.0124 9.96201 16.7299 8.25776 17.4977 6.57028C17.5793 6.3921 17.4929 6.01268 17.884 6.04412C18.1575 6.06718 18.1431 6.35856 18.2271 6.54932C18.9854 8.26824 19.7508 9.98297 20.5018 11.7061C20.569 11.8612 20.6218 12.0352 20.8042 12.0604C21.0801 12.0981 21.1233 11.8423 21.1881 11.6956C22.1167 9.59097 23.0285 7.48005 23.9451 5.36913C24.065 5.25803 24.1034 5.09243 23.9115 5.08195L23.9139 5.08823Z" fill="white"/>
<path d="M66.9409 10.856L66.9241 10.8665C66.6217 10.5772 66.2114 10.7638 65.8611 10.6862L65.8515 10.703C65.8515 8.56692 65.8563 6.42874 65.8419 4.29267C65.8419 4.02854 65.9979 3.7162 65.6691 3.49609H64.0591C63.7352 3.7141 63.8791 4.02435 63.8791 4.29267C63.8671 6.42874 63.8719 8.56692 63.8719 10.703L63.8671 10.6946C63.5144 10.703 63.1617 10.7114 62.809 10.7219C62.5114 11.2375 62.497 11.7511 62.8258 12.2605C64.1839 12.2605 65.5444 12.2605 66.9025 12.2584C67.2504 11.7972 67.1856 11.3298 66.9409 10.856Z" fill="white"/>
</svg>
