<svg width="22" height="22" viewBox="0 0 22 22" fill="none" xmlns="http://www.w3.org/2000/svg">
<path d="M9.23076 2.58518L2.87825 7.67267C2.16325 8.24101 1.70492 9.44187 1.86075 10.3402L3.07992 17.6368C3.29992 18.9385 4.54658 19.9927 5.86658 19.9927H16.1333C17.4441 19.9927 18.6999 18.9293 18.9199 17.6368L20.1391 10.3402C20.2858 9.44187 19.8274 8.24101 19.1216 7.67267L12.7691 2.59436C11.7882 1.80603 10.2024 1.80602 9.23076 2.58518Z" stroke="#7E828E" stroke-width="1.5" stroke-linecap="round" stroke-linejoin="round"/>
<path d="M10.9999 14.2083C12.2656 14.2083 13.2916 13.1823 13.2916 11.9167C13.2916 10.651 12.2656 9.625 10.9999 9.625C9.73427 9.625 8.70825 10.651 8.70825 11.9167C8.70825 13.1823 9.73427 14.2083 10.9999 14.2083Z" stroke="#7E828E" stroke-width="1.5" stroke-linecap="round" stroke-linejoin="round"/>
</svg>
