<svg width="28" height="26" viewBox="0 0 28 26" fill="none" xmlns="http://www.w3.org/2000/svg">
<g filter="url(#filter0_d_831_3971)">
<path d="M22.1216 7.67269L15.7691 2.59435C14.7883 1.80602 13.2024 1.80602 12.2308 2.58519L5.87825 7.67269C5.16325 8.24102 4.70492 9.44185 4.86075 10.3402L6.07992 17.6369C6.29992 18.9385 7.54658 19.9927 8.86658 19.9927H19.1333C20.4441 19.9927 21.6999 18.9294 21.9199 17.6369L23.1391 10.3402C23.2858 9.44185 22.8274 8.24102 22.1216 7.67269ZM13.9999 14.2085C12.7349 14.2085 11.7083 13.1819 11.7083 11.9169C11.7083 10.6519 12.7349 9.62519 13.9999 9.62519C15.2649 9.62519 16.2916 10.6519 16.2916 11.9169C16.2916 13.1819 15.2649 14.2085 13.9999 14.2085Z" fill="#3F9DDE"/>
</g>
<defs>
<filter id="filter0_d_831_3971" x="-1" y="-2" width="30" height="30" filterUnits="userSpaceOnUse" color-interpolation-filters="sRGB">
<feFlood flood-opacity="0" result="BackgroundImageFix"/>
<feColorMatrix in="SourceAlpha" type="matrix" values="0 0 0 0 0 0 0 0 0 0 0 0 0 0 0 0 0 0 127 0" result="hardAlpha"/>
<feOffset dy="2"/>
<feGaussianBlur stdDeviation="2"/>
<feComposite in2="hardAlpha" operator="out"/>
<feColorMatrix type="matrix" values="0 0 0 0 0 0 0 0 0 0 0 0 0 0 0 0 0 0 0.25 0"/>
<feBlend mode="normal" in2="BackgroundImageFix" result="effect1_dropShadow_831_3971"/>
<feBlend mode="normal" in="SourceGraphic" in2="effect1_dropShadow_831_3971" result="shape"/>
</filter>
</defs>
</svg>
