<svg width="22" height="22" viewBox="0 0 22 22" fill="none" xmlns="http://www.w3.org/2000/svg">
<path d="M11.0002 14.208C13.026 14.208 14.6668 12.5672 14.6668 10.5413V5.49967C14.6668 3.47384 13.026 1.83301 11.0002 1.83301C8.97433 1.83301 7.3335 3.47384 7.3335 5.49967V10.5413C7.3335 12.5672 8.97433 14.208 11.0002 14.208Z" stroke="#7E828E" stroke-width="1.5" stroke-linecap="round" stroke-linejoin="round"/>
<path d="M3.9873 8.8457V10.404C3.9873 14.2724 7.13147 17.4165 10.9998 17.4165C14.8681 17.4165 18.0123 14.2724 18.0123 10.404V8.8457" stroke="#7E828E" stroke-width="1.5" stroke-linecap="round" stroke-linejoin="round"/>
<path d="M9.72607 5.89387C10.5511 5.59137 11.4494 5.59137 12.2744 5.89387" stroke="#7E828E" stroke-width="1.5" stroke-linecap="round" stroke-linejoin="round"/>
<path d="M10.2666 7.83746C10.7524 7.70913 11.2566 7.70913 11.7424 7.83746" stroke="#7E828E" stroke-width="1.5" stroke-linecap="round" stroke-linejoin="round"/>
<path d="M11 17.417V20.167" stroke="#7E828E" stroke-width="1.5" stroke-linecap="round" stroke-linejoin="round"/>
</svg>
