<svg width="22" height="22" viewBox="0 0 22 22" fill="none" xmlns="http://www.w3.org/2000/svg">
<path d="M15.1159 20.8529H6.87506C5.2984 20.8529 4.1159 20.4312 3.38256 19.597C2.64923 18.7629 2.36506 17.5529 2.55756 15.9854L3.38256 9.11037C3.6209 7.08453 4.13423 5.26953 7.70923 5.26953H14.3092C17.8751 5.26953 18.3884 7.08453 18.6359 9.11037L19.4609 15.9854C19.6442 17.5529 19.3692 18.772 18.6359 19.597C17.8751 20.4312 16.7017 20.8529 15.1159 20.8529ZM7.70006 6.64453C5.06006 6.64453 4.93173 7.68952 4.73923 9.26618L3.91423 16.1412C3.77673 17.3054 3.94173 18.1579 4.40923 18.6804C4.87673 19.2029 5.70173 19.4687 6.87506 19.4687H15.1159C16.2892 19.4687 17.1142 19.2029 17.5817 18.6804C18.0492 18.1579 18.2142 17.3054 18.0767 16.1412L17.2517 9.26618C17.0592 7.68035 16.9401 6.64453 14.2909 6.64453H7.70006Z" fill="#7E828E"/>
<path d="M14.6666 8.01953C14.2908 8.01953 13.9791 7.70786 13.9791 7.33203V4.1237C13.9791 3.1337 13.3649 2.51953 12.3749 2.51953H9.62492C8.63492 2.51953 8.02075 3.1337 8.02075 4.1237V7.33203C8.02075 7.70786 7.70909 8.01953 7.33325 8.01953C6.95742 8.01953 6.64575 7.70786 6.64575 7.33203V4.1237C6.64575 2.37286 7.87409 1.14453 9.62492 1.14453H12.3749C14.1258 1.14453 15.3541 2.37286 15.3541 4.1237V7.33203C15.3541 7.70786 15.0424 8.01953 14.6666 8.01953Z" fill="#7E828E"/>
<path d="M18.7091 16.2969H7.33325C6.95742 16.2969 6.64575 15.9852 6.64575 15.6094C6.64575 15.2335 6.95742 14.9219 7.33325 14.9219H18.7091C19.0849 14.9219 19.3966 15.2335 19.3966 15.6094C19.3966 15.9852 19.0849 16.2969 18.7091 16.2969Z" fill="#7E828E"/>
</svg>
