<svg width="32" height="24" viewBox="0 0 32 24" fill="none" xmlns="http://www.w3.org/2000/svg">
<path d="M26 12C26 12 28 13.8203 28 15.5C28 17.1797 26 19 26 19" stroke="#23A848"/>
<path d="M29 10C29 10 31 12.8605 31 15.5C31 18.1395 29 21 29 21" stroke="#23A848"/>
<path d="M3 10C3 10 1 12.8605 1 15.5C1 18.1395 3 21 3 21" stroke="#23A848"/>
<path d="M6 12C6 12 4 13.8203 4 15.5C4 17.1797 6 19 6 19" stroke="#23A848"/>
<path d="M23.3399 14.49L22.3399 12.83C22.1299 12.46 21.9399 11.76 21.9399 11.35V8.82C21.9399 6.47 20.5599 4.44 18.5699 3.49C18.0499 2.57 17.0899 2 15.9899 2C14.8999 2 13.9199 2.59 13.3999 3.52C11.4499 4.49 10.0999 6.5 10.0999 8.82V11.35C10.0999 11.76 9.90994 12.46 9.69994 12.82L8.68994 14.49C8.28994 15.16 8.19994 15.9 8.44994 16.58C8.68994 17.25 9.25994 17.77 9.99994 18.02C11.9399 18.68 13.9799 19 16.0199 19C18.0599 19 20.0999 18.68 22.0399 18.03C22.7399 17.8 23.2799 17.27 23.5399 16.58C23.7999 15.89 23.7299 15.13 23.3399 14.49Z" fill="#23A848"/>
<path d="M18.8297 20.01C18.4097 21.17 17.2997 22 15.9997 22C15.2097 22 14.4297 21.68 13.8797 21.11C13.5597 20.81 13.3197 20.41 13.1797 20C13.3097 20.02 13.4397 20.03 13.5797 20.05C13.8097 20.08 14.0497 20.11 14.2897 20.13C14.8597 20.18 15.4397 20.21 16.0197 20.21C16.5897 20.21 17.1597 20.18 17.7197 20.13C17.9297 20.11 18.1397 20.1 18.3397 20.07C18.4997 20.05 18.6597 20.03 18.8297 20.01Z" fill="#23A848"/>
</svg>
