<svg width="22" height="22" viewBox="0 0 22 22" fill="none" xmlns="http://www.w3.org/2000/svg">
<path d="M18.3335 5.27051H12.8335C12.4577 5.27051 12.146 4.95884 12.146 4.58301C12.146 4.20717 12.4577 3.89551 12.8335 3.89551H18.3335C18.7093 3.89551 19.021 4.20717 19.021 4.58301C19.021 4.95884 18.7093 5.27051 18.3335 5.27051Z" fill="#7E828E"/>
<path d="M15.5835 8.02051H12.8335C12.4577 8.02051 12.146 7.70884 12.146 7.33301C12.146 6.95717 12.4577 6.64551 12.8335 6.64551H15.5835C15.9593 6.64551 16.271 6.95717 16.271 7.33301C16.271 7.70884 15.9593 8.02051 15.5835 8.02051Z" fill="#7E828E"/>
<path d="M10.5418 19.9372C5.36266 19.9372 1.146 15.7205 1.146 10.5413C1.146 5.36217 5.36266 1.14551 10.5418 1.14551C10.9177 1.14551 11.2293 1.45717 11.2293 1.83301C11.2293 2.20884 10.9177 2.52051 10.5418 2.52051C6.11433 2.52051 2.521 6.12301 2.521 10.5413C2.521 14.9597 6.11433 18.5622 10.5418 18.5622C14.9693 18.5622 18.5627 14.9597 18.5627 10.5413C18.5627 10.1655 18.8743 9.85384 19.2502 9.85384C19.626 9.85384 19.9377 10.1655 19.9377 10.5413C19.9377 15.7205 15.721 19.9372 10.5418 19.9372Z" fill="#7E828E"/>
<path d="M20.1665 20.8545C19.9923 20.8545 19.8182 20.7903 19.6807 20.6528L17.8473 18.8195C17.5815 18.5536 17.5815 18.1136 17.8473 17.8478C18.1132 17.582 18.5532 17.582 18.819 17.8478L20.6523 19.6811C20.9182 19.947 20.9182 20.387 20.6523 20.6528C20.5148 20.7903 20.3407 20.8545 20.1665 20.8545Z" fill="#7E828E"/>
</svg>
