<svg width="28" height="28" viewBox="0 0 28 28" fill="none" xmlns="http://www.w3.org/2000/svg">
<g filter="url(#filter0_d_831_2941)">
<path d="M23.1666 20.4805C23.1666 20.8563 22.8549 21.168 22.4791 21.168H5.52075C5.14492 21.168 4.83325 20.8563 4.83325 20.4805C4.83325 20.1046 5.14492 19.793 5.52075 19.793H22.4791C22.8549 19.793 23.1666 20.1046 23.1666 20.4805Z" fill="#3F9DDE"/>
<path d="M17.1075 5.14458L7.26249 14.9896C6.88665 15.3654 6.28165 15.3654 5.91499 14.9896H5.90582C4.63165 13.7063 4.63165 11.6346 5.90582 10.3604L12.46 3.80625C13.7433 2.52292 15.815 2.52292 17.0983 3.80625C17.4742 4.16375 17.4742 4.77792 17.1075 5.14458Z" fill="#3F9DDE"/>
<path d="M22.0849 8.78083L19.2891 5.985C18.9132 5.60917 18.3082 5.60917 17.9416 5.985L8.09657 15.83C7.72074 16.1967 7.72074 16.8017 8.09657 17.1775L10.8924 19.9825C12.1757 21.2567 14.2474 21.2567 15.5307 19.9825L22.0757 13.4283C23.3774 12.145 23.3774 10.0642 22.0849 8.78083ZM14.6966 17.0583L13.5874 18.1767C13.3582 18.4058 12.9824 18.4058 12.7441 18.1767C12.5149 17.9475 12.5149 17.5717 12.7441 17.3333L13.8624 16.215C14.0824 15.995 14.4674 15.995 14.6966 16.215C14.9257 16.4442 14.9257 16.8383 14.6966 17.0583ZM18.3357 13.4192L16.0991 15.665C15.8699 15.885 15.4941 15.885 15.2557 15.665C15.0266 15.4358 15.0266 15.06 15.2557 14.8217L17.5016 12.5758C17.7216 12.3558 18.1066 12.3558 18.3357 12.5758C18.5649 12.8142 18.5649 13.19 18.3357 13.4192Z" fill="#3F9DDE"/>
</g>
<defs>
<filter id="filter0_d_831_2941" x="-1" y="-1" width="30" height="30" filterUnits="userSpaceOnUse" color-interpolation-filters="sRGB">
<feFlood flood-opacity="0" result="BackgroundImageFix"/>
<feColorMatrix in="SourceAlpha" type="matrix" values="0 0 0 0 0 0 0 0 0 0 0 0 0 0 0 0 0 0 127 0" result="hardAlpha"/>
<feOffset dy="2"/>
<feGaussianBlur stdDeviation="2"/>
<feComposite in2="hardAlpha" operator="out"/>
<feColorMatrix type="matrix" values="0 0 0 0 0 0 0 0 0 0 0 0 0 0 0 0 0 0 0.25 0"/>
<feBlend mode="normal" in2="BackgroundImageFix" result="effect1_dropShadow_831_2941"/>
<feBlend mode="normal" in="SourceGraphic" in2="effect1_dropShadow_831_2941" result="shape"/>
</filter>
</defs>
</svg>
